# xmcd
#
# Track frame offsets: 
#        150
#        18412
#        35562
#        48337
#        67460
#        86025
#        100150
#        122037
#        134050
#        148162
#
# Disc length: 2157 seconds
#
# Revision: 4
# Processed by: cddbd v1.5.2PL0 Copyright (c) Steve Scherf et al.
# Submitted via: ExactAudioCopy v0.95b3
#
DISCID=9a086b0a
DTITLE=Steve Earle and The Dukes - Fearless Heart
DYEAR=1995
DGENRE=Country
TTITLE0=I Ain't Ever Satisfied
TTITLE1=Someday
TTITLE2=Nowhere Road
TTITLE3=She's About A Mover
TTITLE4=Fearless Heart
TTITLE5=San Antonio Girl
TTITLE6=Little Rock 'N' Roller
TTITLE7=Sweet Little '66
TTITLE8=Six Days On The Road
TTITLE9=The Devil's Right Hand
EXTD=
EXTT0=
EXTT1=
EXTT2=
EXTT3=
EXTT4=
EXTT5=
EXTT6=
EXTT7=
EXTT8=
EXTT9=
PLAYORDER=
